<svg width="20" height="20" viewBox="0 0 20 20" fill="none" xmlns="http://www.w3.org/2000/svg">
<path fill-rule="evenodd" clip-rule="evenodd" d="M4.29302 4.29289C4.68354 3.90237 5.3167 3.90237 5.70723 4.29289L10.0001 8.58579L14.293 4.29289C14.6835 3.90237 15.3167 3.90237 15.7072 4.29289C16.0978 4.68342 16.0978 5.31658 15.7072 5.70711L11.4143 10L15.7072 14.2929C16.0978 14.6834 16.0978 15.3166 15.7072 15.7071C15.3167 16.0976 14.6835 16.0976 14.293 15.7071L10.0001 11.4142L5.70723 15.7071C5.3167 16.0976 4.68354 16.0976 4.29302 15.7071C3.90249 15.3166 3.90249 14.6834 4.29302 14.2929L8.58591 10L4.29302 5.70711C3.90249 5.31658 3.90249 4.68342 4.29302 4.29289Z" fill="#111827"/>
</svg>
